<svg xmlns="http://www.w3.org/2000/svg" width="134" height="39" viewBox="0 0 134 39">
  <defs>
    <style>
      .cls-1 {
        fill-rule: evenodd;
      }
    </style>
  </defs>
  <path id="Freightgate" class="cls-1" d="M12.051,11.935v1.76H3.823v4.994h7.216v1.76H3.823v7.194H1.733V11.935H12.051Zm6.268,4.334v2.4h0.044a5.064,5.064,0,0,1,1.672-2.046A4.2,4.2,0,0,1,22.543,16v1.98a5.292,5.292,0,0,0-1.914.308,3.018,3.018,0,0,0-1.276.9,3.728,3.728,0,0,0-.7,1.441,7.772,7.772,0,0,0-.22,1.947v5.06h-1.87V16.269h1.76Zm14.711,3.344a3.207,3.207,0,0,0-.682-1.023,3.243,3.243,0,0,0-1.012-.682,3.2,3.2,0,0,0-1.287-.253,3.26,3.26,0,0,0-1.309.253,3.023,3.023,0,0,0-1,.693,3.317,3.317,0,0,0-.66,1.023,3.885,3.885,0,0,0-.286,1.243h6.534A3.839,3.839,0,0,0,33.031,19.613Zm0.451,7.3a5.162,5.162,0,0,1-3.212.968,5.843,5.843,0,0,1-2.365-.44,4.656,4.656,0,0,1-1.683-1.232A5.227,5.227,0,0,1,25.2,24.321a9.1,9.1,0,0,1-.385-2.4,6.845,6.845,0,0,1,.4-2.376,5.679,5.679,0,0,1,1.111-1.87,5.041,5.041,0,0,1,1.694-1.232A5.172,5.172,0,0,1,30.16,16a4.667,4.667,0,0,1,2.519.627,4.987,4.987,0,0,1,1.606,1.595,6.312,6.312,0,0,1,.836,2.112,9.063,9.063,0,0,1,.187,2.178H26.794a4.51,4.51,0,0,0,.176,1.419,3.206,3.206,0,0,0,.638,1.188,3.142,3.142,0,0,0,1.122.825,3.868,3.868,0,0,0,1.606.308,3.236,3.236,0,0,0,1.947-.55,2.66,2.66,0,0,0,1-1.672h1.848A4.547,4.547,0,0,1,33.482,26.917ZM39.74,14.223V11.935h1.87v2.288H39.74Zm1.87,2.046V27.643H39.74V16.269h1.87ZM55.366,30.855a5.2,5.2,0,0,1-4,1.386,7.746,7.746,0,0,1-1.617-.176,4.96,4.96,0,0,1-1.5-.572,3.483,3.483,0,0,1-1.111-1.034,2.938,2.938,0,0,1-.484-1.562h1.87a1.383,1.383,0,0,0,.319.858,2.333,2.333,0,0,0,.726.572,3.525,3.525,0,0,0,.935.319,5.043,5.043,0,0,0,.968.1,3.472,3.472,0,0,0,1.562-.319,2.936,2.936,0,0,0,1.056-.88,3.636,3.636,0,0,0,.605-1.353,7.571,7.571,0,0,0,.187-1.738V25.707H54.838a3.145,3.145,0,0,1-1.463,1.551,4.546,4.546,0,0,1-2.079.5,5.009,5.009,0,0,1-2.222-.462,4.646,4.646,0,0,1-1.584-1.243,5.285,5.285,0,0,1-.957-1.826,7.525,7.525,0,0,1-.319-2.211,8.644,8.644,0,0,1,.264-2.079A5.671,5.671,0,0,1,47.358,18a4.822,4.822,0,0,1,1.628-1.43A5.065,5.065,0,0,1,51.472,16a4.2,4.2,0,0,1,1.98.473A3.333,3.333,0,0,1,54.86,17.9h0.022V16.269h1.76V26.675A5.991,5.991,0,0,1,55.366,30.855ZM52.979,25.74a3.067,3.067,0,0,0,1.045-1.012,4.629,4.629,0,0,0,.583-1.419,6.881,6.881,0,0,0,.187-1.584,6.243,6.243,0,0,0-.176-1.474,4.121,4.121,0,0,0-.561-1.309,2.921,2.921,0,0,0-1-.935,2.974,2.974,0,0,0-1.5-.352A3.228,3.228,0,0,0,50.02,18a3,3,0,0,0-1.045.913,3.87,3.87,0,0,0-.594,1.32,6.413,6.413,0,0,0-.187,1.562,7.822,7.822,0,0,0,.154,1.54,4.371,4.371,0,0,0,.528,1.4,2.966,2.966,0,0,0,.99,1.012,2.854,2.854,0,0,0,1.54.385A3.03,3.03,0,0,0,52.979,25.74Zm9.921-13.8v6.006h0.044a2.486,2.486,0,0,1,.616-0.891,3.5,3.5,0,0,1,.891-0.594,4.633,4.633,0,0,1,1.034-.341A5.229,5.229,0,0,1,66.53,16a4.939,4.939,0,0,1,1.87.308,3.081,3.081,0,0,1,1.21.858,3.19,3.19,0,0,1,.649,1.309,7.047,7.047,0,0,1,.187,1.683v7.48h-1.87v-7.7a2.26,2.26,0,0,0-.616-1.672,2.291,2.291,0,0,0-1.694-.616,3.811,3.811,0,0,0-1.485.264,2.786,2.786,0,0,0-1.045.748,3.222,3.222,0,0,0-.627,1.133,4.6,4.6,0,0,0-.209,1.419v6.424H61.03V11.935H62.9Zm17.192,4.334v1.65H77.826v7.062a2.035,2.035,0,0,0,.055.528,0.541,0.541,0,0,0,.209.308,0.918,0.918,0,0,0,.429.143,6.233,6.233,0,0,0,.715.033h0.858v1.65h-1.43a6.713,6.713,0,0,1-1.243-.1,1.824,1.824,0,0,1-.836-0.363,1.548,1.548,0,0,1-.473-0.748,4.316,4.316,0,0,1-.154-1.276V17.919H74.02v-1.65h1.936v-3.41h1.87v3.41h2.266ZM92.966,30.855a5.2,5.2,0,0,1-4,1.386,7.746,7.746,0,0,1-1.617-.176,4.96,4.96,0,0,1-1.5-.572,3.483,3.483,0,0,1-1.111-1.034,2.938,2.938,0,0,1-.484-1.562h1.87a1.383,1.383,0,0,0,.319.858,2.333,2.333,0,0,0,.726.572,3.525,3.525,0,0,0,.935.319,5.043,5.043,0,0,0,.968.1,3.472,3.472,0,0,0,1.562-.319,2.936,2.936,0,0,0,1.056-.88,3.636,3.636,0,0,0,.605-1.353,7.571,7.571,0,0,0,.187-1.738V25.707H92.438a3.145,3.145,0,0,1-1.463,1.551,4.546,4.546,0,0,1-2.079.5,5.009,5.009,0,0,1-2.222-.462,4.646,4.646,0,0,1-1.584-1.243,5.285,5.285,0,0,1-.957-1.826,7.525,7.525,0,0,1-.319-2.211,8.644,8.644,0,0,1,.264-2.079A5.671,5.671,0,0,1,84.958,18a4.822,4.822,0,0,1,1.628-1.43A5.065,5.065,0,0,1,89.072,16a4.2,4.2,0,0,1,1.98.473A3.333,3.333,0,0,1,92.46,17.9h0.022V16.269h1.76V26.675A5.991,5.991,0,0,1,92.966,30.855ZM90.579,25.74a3.067,3.067,0,0,0,1.045-1.012,4.629,4.629,0,0,0,.583-1.419,6.881,6.881,0,0,0,.187-1.584,6.243,6.243,0,0,0-.176-1.474,4.121,4.121,0,0,0-.561-1.309,2.921,2.921,0,0,0-1-.935,2.974,2.974,0,0,0-1.5-.352A3.228,3.228,0,0,0,87.62,18a3,3,0,0,0-1.045.913,3.87,3.87,0,0,0-.594,1.32,6.413,6.413,0,0,0-.187,1.562,7.822,7.822,0,0,0,.154,1.54,4.371,4.371,0,0,0,.528,1.4,2.966,2.966,0,0,0,.99,1.012,2.854,2.854,0,0,0,1.54.385A3.03,3.03,0,0,0,90.579,25.74Zm18.127,0.407a2.264,2.264,0,0,1-.572.088,0.453,0.453,0,0,1-.517-0.307,4.315,4.315,0,0,1-.077-0.966v-5.84a3.054,3.054,0,0,0-.374-1.6,2.644,2.644,0,0,0-.99-0.955,4,4,0,0,0-1.375-.45,10.669,10.669,0,0,0-1.529-.11,7.951,7.951,0,0,0-1.815.2,4.438,4.438,0,0,0-1.507.649,3.337,3.337,0,0,0-1.056,1.177,4.038,4.038,0,0,0-.44,1.782h1.87a1.914,1.914,0,0,1,.858-1.705,3.958,3.958,0,0,1,1.98-.451,6.154,6.154,0,0,1,.891.066,2.42,2.42,0,0,1,.814.264,1.585,1.585,0,0,1,.594.572,1.868,1.868,0,0,1,.231.99,1.021,1.021,0,0,1-.308.8,2.034,2.034,0,0,1-.836.418,8.1,8.1,0,0,1-1.221.22q-0.693.077-1.463,0.231-0.726.132-1.419,0.33a3.984,3.984,0,0,0-1.232.583,2.881,2.881,0,0,0-.869,1,3.342,3.342,0,0,0-.33,1.584,3.293,3.293,0,0,0,.3,1.463,2.635,2.635,0,0,0,.8.979,3.392,3.392,0,0,0,1.2.55,6.193,6.193,0,0,0,3.674-.231,4.477,4.477,0,0,0,1.793-1.331,1.769,1.769,0,0,0,.429,1.331,1.61,1.61,0,0,0,1.155.407,2.649,2.649,0,0,0,1.342-.286V26.147Zm-3.036-2.473a2.1,2.1,0,0,1-.2.843,2.515,2.515,0,0,1-.616.832,3.338,3.338,0,0,1-1.078.635,4.453,4.453,0,0,1-1.584.252,3.858,3.858,0,0,1-.836-0.087,2.037,2.037,0,0,1-.693-0.285,1.547,1.547,0,0,1-.484-0.515,1.5,1.5,0,0,1-.187-0.777,1.74,1.74,0,0,1,.319-1.106,2.067,2.067,0,0,1,.825-0.624,4.66,4.66,0,0,1,1.144-.317q0.638-.1,1.265-0.175t1.2-.2a2.337,2.337,0,0,0,.924-0.383v1.9Zm12.022-7.4v1.65h-2.266v7.062a2.026,2.026,0,0,0,.055.528,0.538,0.538,0,0,0,.209.308,0.915,0.915,0,0,0,.429.143,6.225,6.225,0,0,0,.715.033h0.858v1.65h-1.43a6.71,6.71,0,0,1-1.243-.1,1.821,1.821,0,0,1-.836-0.363,1.543,1.543,0,0,1-.473-0.748,4.309,4.309,0,0,1-.154-1.276V17.919H111.62v-1.65h1.936v-3.41h1.87v3.41h2.266Zm11.939,3.344a3.211,3.211,0,0,0-.682-1.023,3.248,3.248,0,0,0-1.012-.682,3.206,3.206,0,0,0-1.287-.253,3.258,3.258,0,0,0-1.309.253,3.017,3.017,0,0,0-1,.693,3.31,3.31,0,0,0-.66,1.023,3.869,3.869,0,0,0-.286,1.243h6.534A3.86,3.86,0,0,0,129.631,19.613Zm0.451,7.3a5.163,5.163,0,0,1-3.212.968,5.841,5.841,0,0,1-2.365-.44,4.649,4.649,0,0,1-1.683-1.232,5.221,5.221,0,0,1-1.023-1.892,9.074,9.074,0,0,1-.385-2.4,6.845,6.845,0,0,1,.4-2.376,5.676,5.676,0,0,1,1.111-1.87,5.035,5.035,0,0,1,1.694-1.232A5.17,5.17,0,0,1,126.76,16a4.668,4.668,0,0,1,2.519.627,4.993,4.993,0,0,1,1.606,1.595,6.316,6.316,0,0,1,.836,2.112,9.073,9.073,0,0,1,.187,2.178h-8.514a4.5,4.5,0,0,0,.176,1.419,3.2,3.2,0,0,0,.638,1.188,3.139,3.139,0,0,0,1.122.825,3.867,3.867,0,0,0,1.606.308,3.236,3.236,0,0,0,1.947-.55,2.661,2.661,0,0,0,1-1.672h1.848A4.551,4.551,0,0,1,130.082,26.917Z"/>
</svg>
